<svg xmlns="http://www.w3.org/2000/svg">
  <symbol id="main-logo" viewBox="0 0 92 18" fill="none" xmlns="http://www.w3.org/2000/svg">
    <path
      d="M89.0924 3.94207L86.8735 7.71131L84.6325 3.9572L81.8952 3.96602L81.9244 13.6833L84.4614 13.6748L84.4447 8.12194L86.8329 11.8904L86.8862 11.8899L89.2653 8.07821L89.2821 13.6586L91.8591 13.6501L91.8298 3.93301L89.0924 3.94207ZM75.5486 11.4692C74.1333 11.474 73.1546 10.2558 73.1505 8.85405C73.1461 7.42413 74.0906 6.22708 75.5062 6.2223C76.9348 6.21775 77.9132 7.43611 77.9174 8.83804C77.9217 10.2677 76.9776 11.4645 75.5486 11.4692ZM75.5254 3.793C72.6411 3.80265 70.4846 6.07239 70.4931 8.86269C70.5016 11.6803 72.6449 13.9086 75.5293 13.8991C78.4135 13.8893 80.5701 11.6195 80.5616 8.8294C80.5531 6.0113 78.4096 3.78357 75.5254 3.793ZM66.1478 11.3755L63.3838 11.3847C63.8069 10.0507 64.1101 8.63391 64.1035 6.48246L64.1034 6.38534L66.1328 6.37884L66.1478 11.3755ZM68.7386 11.3671L68.7164 4.01013L61.5992 4.03348L61.5999 4.28357C61.611 7.93438 61.2955 9.62897 60.673 11.3939L59.8455 11.3967L59.8551 14.6083L62.1786 14.6007L62.3493 13.7482L67.3167 13.7318L67.3194 14.5836L69.812 14.5695L69.7934 11.3635L68.7386 11.3671ZM52.5952 11.4206L49.9379 11.4296L49.9158 4.07257L47.3251 4.08115L47.3473 11.4382L44.6902 11.4468L44.6681 4.08979L42.0773 4.09861L42.1066 13.8155L55.1928 13.772L55.1635 4.05511L52.5731 4.06351L52.5952 11.4206ZM34.8851 10.0083L35.9313 7.24215L36.9811 10.0012L34.8851 10.0083ZM34.693 4.05363L30.7435 13.8534L33.4677 13.8444L34.1299 12.107L37.7353 12.095L38.4212 13.8277L41.1989 13.8185L37.1903 4.04522L34.693 4.05363ZM26.731 11.7013L24.7282 11.7081L24.7228 9.91708L26.6993 9.91044C27.5673 9.90766 27.9685 10.2533 27.9701 10.7807C27.9719 11.3777 27.5191 11.6986 26.731 11.7013ZM24.7119 6.32183L26.3943 6.31626C27.1689 6.31357 27.5706 6.61793 27.5722 7.14559C27.5739 7.742 27.1339 8.02124 26.3461 8.02403L24.7171 8.02914L24.7119 6.32183ZM28.6987 8.77954C29.5255 8.40188 30.1378 7.73364 30.1344 6.60924C30.1324 5.91539 29.9034 5.40212 29.5284 5.01452C28.9792 4.44754 28.1505 4.14466 26.9754 4.14861L22.1818 4.16481L22.211 13.8817L27.0314 13.8656C29.2613 13.8584 30.5667 12.8407 30.5617 11.1751C30.5576 9.82846 29.8349 9.16426 28.6987 8.77954Z"
      fill="white" />
    <path fill-rule="evenodd" clip-rule="evenodd"
      d="M7.59493 17.8151L16.2586 17.7875C17.1541 17.7847 17.8776 17.0735 17.8749 16.1995C17.8736 15.78 17.7017 15.3775 17.3965 15.0822L13.0519 10.8686C12.7343 10.5602 12.3188 10.4077 11.9041 10.4087C11.4887 10.4094 11.0748 10.5657 10.759 10.8753L6.44017 15.1165C5.42185 16.1165 6.15043 17.8195 7.59493 17.8151ZM17.857 10.55L17.8299 1.97574C17.8274 1.20129 17.1822 0.575441 16.3886 0.578134C16.0081 0.579201 15.6429 0.728224 15.374 0.991497L0.701825 15.4016C0.422164 15.676 0.335768 16.0851 0.480612 16.4455C0.641612 16.8445 1.02591 17.0656 1.41667 17.0643C1.66745 17.0635 1.92075 16.9712 2.11949 16.7762L10.5774 8.46843L10.5783 8.46764C11.3049 7.75456 12.4856 7.7515 13.2165 8.46012L16.1075 11.264C16.7559 11.8927 17.8599 11.4421 17.857 10.55ZM0.0192927 10.9248C0.0183642 10.6518 0.133358 10.4057 0.318359 10.2285L0.317059 10.2273L9.81002 0.902826C9.99108 0.7149 10.2459 0.596007 10.5312 0.595311C11.0814 0.593315 11.5292 1.02771 11.5308 1.56535C11.5317 1.82064 11.4293 2.05183 11.2646 2.22597L11.2666 2.2282L11.2459 2.24867C11.2427 2.25173 11.2393 2.25457 11.2359 2.25809L1.72897 11.6004C1.72414 11.6049 1.72028 11.6089 1.71592 11.6132L1.69299 11.6356L1.69122 11.6333C1.51388 11.7931 1.27944 11.8935 1.01872 11.8944C0.468403 11.8963 0.020964 11.4625 0.0192927 10.9248ZM0.170544 5.31254C0.169569 5.03934 0.284701 4.79324 0.469796 4.61613L0.468635 4.61544L4.2377 0.913272C4.41829 0.724928 4.67381 0.606128 4.95862 0.605339C5.50954 0.603435 5.95721 1.03769 5.95888 1.57463C5.95972 1.83062 5.85694 2.06181 5.69217 2.23595L5.69431 2.23809L5.67323 2.25819C5.67031 2.26172 5.66664 2.26501 5.66362 2.26808L1.88008 5.98821C1.87585 5.99257 1.87149 5.99666 1.86726 6.00102L1.84479 6.02289L1.84233 6.02135C1.66569 6.18143 1.43078 6.28124 1.17053 6.28231C0.619979 6.28384 0.172168 5.85014 0.170544 5.31254Z"
      fill="url(#paint0_linear_197_84)" />
    <defs>
      <linearGradient id="paint0_linear_197_84" x1="17.5769" y1="0.570428" x2="0.779169"
        y2="17.0869" gradientUnits="userSpaceOnUse">
        <stop stop-color="#584081" />
        <stop offset="1" stop-color="#E53624" />
      </linearGradient>
    </defs>
  </symbol>
  <symbol id="map-pin" viewBox="0 0 14 14" fill="none" xmlns="http://www.w3.org/2000/svg">
    <g opacity="0.56">
      <path fill-rule="evenodd" clip-rule="evenodd"
        d="M6.99996 1.16667C5.76228 1.16667 4.5753 1.65833 3.70013 2.5335C2.82496 3.40867 2.33329 4.59566 2.33329 5.83333C2.33329 7.64053 3.50914 9.39415 4.79843 10.7551C5.43115 11.4229 6.06585 11.9697 6.54302 12.3497C6.72061 12.4911 6.87572 12.6089 6.99996 12.7007C7.1242 12.6089 7.27931 12.4911 7.4569 12.3497C7.93407 11.9697 8.56877 11.4229 9.20149 10.7551C10.4908 9.39415 11.6666 7.64053 11.6666 5.83333C11.6666 4.59566 11.175 3.40867 10.2998 2.5335C9.42462 1.65833 8.23764 1.16667 6.99996 1.16667ZM6.99996 13.4167C6.67638 13.902 6.67624 13.9019 6.67607 13.9018L6.6744 13.9007L6.67051 13.8981L6.65715 13.8891C6.64579 13.8813 6.62959 13.8703 6.60887 13.8559C6.56744 13.8272 6.5079 13.7854 6.43284 13.7312C6.28278 13.6228 6.07034 13.4646 5.81627 13.2623C5.30907 12.8584 4.63127 12.275 3.95149 11.5574C2.61578 10.1475 1.16663 8.10947 1.16663 5.83333C1.16663 4.28624 1.78121 2.80251 2.87517 1.70854C3.96913 0.614581 5.45286 0 6.99996 0C8.54706 0 10.0308 0.614581 11.1247 1.70854C12.2187 2.80251 12.8333 4.28624 12.8333 5.83333C12.8333 8.10947 11.3841 10.1475 10.0484 11.5574C9.36865 12.275 8.69085 12.8584 8.18365 13.2623C7.92958 13.4646 7.71714 13.6228 7.56708 13.7312C7.49202 13.7854 7.43248 13.8272 7.39105 13.8559C7.37033 13.8703 7.35413 13.8813 7.34277 13.8891L7.32941 13.8981L7.32552 13.9007L7.32429 13.9015C7.32412 13.9016 7.32353 13.902 6.99996 13.4167ZM6.99996 13.4167L7.32353 13.902C7.12759 14.0327 6.87201 14.0324 6.67607 13.9018L6.99996 13.4167Z"
        fill="white" />
      <path fill-rule="evenodd" clip-rule="evenodd"
        d="M6.99996 4.66667C6.35563 4.66667 5.83329 5.189 5.83329 5.83333C5.83329 6.47767 6.35563 7 6.99996 7C7.64429 7 8.16663 6.47767 8.16663 5.83333C8.16663 5.189 7.64429 4.66667 6.99996 4.66667ZM4.66663 5.83333C4.66663 4.54467 5.71129 3.5 6.99996 3.5C8.28862 3.5 9.33329 4.54467 9.33329 5.83333C9.33329 7.122 8.28862 8.16667 6.99996 8.16667C5.71129 8.16667 4.66663 7.122 4.66663 5.83333Z"
        fill="white" />
    </g>
  </symbol>
  <symbol id="select-arrow" viewBox="0 0 12 6" fill="none" xmlns="http://www.w3.org/2000/svg">
    <path
      fill-rule="evenodd" clip-rule="evenodd"
      d="M0.96967 0.21967C1.26256 -0.0732233 1.73744 -0.0732233 2.03033 0.21967L6 4.18934L9.96967 0.21967C10.2626 -0.0732233 10.7374 -0.0732233 11.0303 0.21967C11.3232 0.512563 11.3232 0.987437 11.0303 1.28033L6.53033 5.78033C6.23744 6.07322 5.76256 6.07322 5.46967 5.78033L0.96967 1.28033C0.676777 0.987437 0.676777 0.512563 0.96967 0.21967Z"
      fill="currentColor" />
  </symbol>
  <symblol id="arrow-left" viewBox="0 0 24 25" fill="none" xmlns="http://www.w3.org/2000/svg">
    <path fill-rule="evenodd" clip-rule="evenodd"
      d="M4 12.3335C4 11.7812 4.44772 11.3335 5 11.3335H19C19.5523 11.3335 20 11.7812 20 12.3335C20 12.8858 19.5523 13.3335 19 13.3335H5C4.44772 13.3335 4 12.8858 4 12.3335Z"
      fill="currentColor" />
    <path fill-rule="evenodd" clip-rule="evenodd"
      d="M12.7071 4.62639C13.0976 5.01691 13.0976 5.65008 12.7071 6.0406L6.41421 12.3335L12.7071 18.6264C13.0976 19.0169 13.0976 19.6501 12.7071 20.0406C12.3166 20.4311 11.6834 20.4311 11.2929 20.0406L4.29289 13.0406C3.90237 12.6501 3.90237 12.0169 4.29289 11.6264L11.2929 4.62639C11.6834 4.23586 12.3166 4.23586 12.7071 4.62639Z"
      fill="currentColor" />
  </symblol>
  <symblol id="arrow-right" viewBox="0 0 24 25" fill="none" xmlns="http://www.w3.org/2000/svg">
    <path fill-rule="evenodd" clip-rule="evenodd"
      d="M4 12.9502C4 12.3979 4.44772 11.9502 5 11.9502H19C19.5523 11.9502 20 12.3979 20 12.9502C20 13.5025 19.5523 13.9502 19 13.9502H5C4.44772 13.9502 4 13.5025 4 12.9502Z"
      fill="white" />
    <path fill-rule="evenodd" clip-rule="evenodd"
      d="M11.2929 5.24309C11.6834 4.85256 12.3166 4.85256 12.7071 5.24309L19.7071 12.2431C20.0976 12.6336 20.0976 13.2668 19.7071 13.6573L12.7071 20.6573C12.3166 21.0478 11.6834 21.0478 11.2929 20.6573C10.9024 20.2668 10.9024 19.6336 11.2929 19.2431L17.5858 12.9502L11.2929 6.6573C10.9024 6.26678 10.9024 5.63361 11.2929 5.24309Z"
      fill="white" />
  </symblol>

</svg>