<svg width="60" height="60" viewBox="0 0 60 60" fill="none" xmlns="http://www.w3.org/2000/svg">
<g clip-path="url(#clip0_2_4764)">
<path d="M34.2742 27.9037C35.4158 27.9037 36.3412 26.9782 36.3412 25.8366C36.3412 24.695 35.4158 23.7695 34.2742 23.7695C33.1326 23.7695 32.2071 24.695 32.2071 25.8366C32.2071 26.9782 33.1326 27.9037 34.2742 27.9037Z" fill="#FAA074"/>
<path d="M13.9931 37.5343L0.160922 51.3654C-0.487711 52.0139 0.883618 54.4367 3.22374 56.7766C5.56397 59.1166 7.98682 60.4877 8.63545 59.8391L12.5148 55.9598L13.9931 37.5343Z" fill="#8D58CD"/>
<path d="M17.7105 46.008L5.20129 58.5161C6.80055 59.7334 8.17165 60.3027 8.63547 59.839L12.5148 55.9596L17.7105 46.008Z" fill="#5C2CC7"/>
<path d="M18.7169 32.8105L4.03983 47.4861C3.3912 48.1346 4.76252 50.5573 7.10264 52.8972C9.44287 55.2372 11.8657 56.6083 12.5144 55.9598L14.3669 54.1075L15.5352 51.7939L17.4351 51.0396L27.1915 41.2843L18.7169 32.8105Z" fill="#FAA074"/>
<path d="M24.8137 38.9053L9.08112 54.6364C10.6804 55.8537 12.0515 56.423 12.5153 55.9593L14.3678 54.1071L15.2632 51.7735L17.436 51.0391L27.1924 41.2837L24.8137 38.9053Z" fill="#EAC941"/>
<path d="M27.0885 41.3808C27.737 40.7323 26.366 38.3099 24.0263 35.9701C21.6865 33.6304 19.2641 32.2594 18.6156 32.9079C17.9672 33.5563 19.3382 35.9788 21.6779 38.3185C24.0176 40.6582 26.4401 42.0292 27.0885 41.3808Z" fill="#8D58CD"/>
<path d="M30.2172 39.2574C29.898 39.2574 29.5892 39.0856 29.4288 38.7839C29.1976 38.3491 29.3626 37.8089 29.7976 37.5776C33.6175 35.5464 41.5374 32.6879 51.6619 36.3638C52.1249 36.532 52.364 37.0436 52.1959 37.5066C52.0278 37.9696 51.5162 38.2087 51.0531 38.0406C41.5776 34.6001 34.1936 37.2605 30.6353 39.1527C30.5017 39.2236 30.3584 39.2574 30.2172 39.2574Z" fill="#8D58CD"/>
<path d="M28.4695 32.4217C28.2412 32.4217 28.0129 32.3346 27.8386 32.1604C27.4904 31.812 27.4904 31.2472 27.8388 30.8989L29.513 29.2249C29.8612 28.8765 30.426 28.8766 30.7744 29.225C31.1227 29.5734 31.1227 30.1382 30.7743 30.4864L29.1001 32.1605C28.9259 32.3346 28.6976 32.4217 28.4695 32.4217Z" fill="#8D58CD"/>
<path d="M37.8559 23.0353C37.6275 23.0353 37.3991 22.9481 37.2249 22.7739C36.8767 22.4254 36.877 21.8606 37.2255 21.5123L49.6042 9.14379C49.9526 8.79563 50.5175 8.79586 50.8656 9.14426C51.2138 9.49277 51.2136 10.0575 50.865 10.4058L38.4863 22.7743C38.3123 22.9484 38.084 23.0353 37.8559 23.0353Z" fill="#8D58CD"/>
<path d="M44.9363 6.09605C46.0779 6.09605 47.0033 5.1706 47.0033 4.02898C47.0033 2.88737 46.0779 1.96191 44.9363 1.96191C43.7947 1.96191 42.8692 2.88737 42.8692 4.02898C42.8692 5.1706 43.7947 6.09605 44.9363 6.09605Z" fill="#FAA074"/>
<path d="M55.8514 17.0997C56.993 17.0997 57.9185 16.1743 57.9185 15.0327C57.9185 13.8911 56.993 12.9656 55.8514 12.9656C54.7098 12.9656 53.7844 13.8911 53.7844 15.0327C53.7844 16.1743 54.7098 17.0997 55.8514 17.0997Z" fill="#FAA074"/>
<path d="M37.1101 45.7054C38.2517 45.7054 39.1772 44.78 39.1772 43.6384C39.1772 42.4967 38.2517 41.5713 37.1101 41.5713C35.9685 41.5713 35.043 42.4967 35.043 43.6384C35.043 44.78 35.9685 45.7054 37.1101 45.7054Z" fill="#FAA074"/>
<path d="M55.5888 29.758L53.4069 28.5668L51.1867 29.6854L51.6476 27.2463L49.8956 25.4846L52.3624 25.1683L53.4997 22.9609L54.5634 25.2046L57.0183 25.602L55.209 27.305L55.5888 29.758Z" fill="#8D58CD"/>
<path d="M55.1581 7.93914L54.4576 5.55402L52.0967 4.77508L54.1474 3.37621L54.1542 0.891602L56.1221 2.41223L58.4872 1.65566L57.6528 3.99426L59.1076 6.01117L56.624 5.93594L55.1581 7.93914Z" fill="#8D58CD"/>
<path d="M45.4118 55.2002L43.2299 54.009L41.0098 55.1277L41.4706 52.6884L39.7186 50.9268L42.1853 50.6105L43.3227 48.4031L44.3863 50.6468L46.8413 51.0443L45.0319 52.7473L45.4118 55.2002Z" fill="#8D58CD"/>
<path d="M48.7436 20.492C49.8914 20.492 49.8933 18.708 48.7436 18.708C47.5956 18.708 47.5937 20.492 48.7436 20.492Z" fill="#AE80EA"/>
<path d="M59.138 34.2058C60.2859 34.2058 60.2879 32.4219 59.138 32.4219C57.9902 32.4219 57.9883 34.2058 59.138 34.2058Z" fill="#AE80EA"/>
<path d="M26.6996 1.78395C27.8474 1.78395 27.8493 0 26.6996 0C25.5517 0 25.5497 1.78395 26.6996 1.78395Z" fill="#AE80EA"/>
<path d="M55.809 39.6804C56.9569 39.6804 56.9587 37.8965 55.809 37.8965C54.661 37.8965 54.6592 39.6804 55.809 39.6804Z" fill="#AE80EA"/>
<path d="M21.6854 30.4839C21.5462 30.4839 21.405 30.4512 21.2729 30.3823C20.8364 30.1541 20.6674 29.6152 20.8957 29.1785C22.7427 25.6449 25.3322 18.3204 21.9231 8.96826C21.7545 8.50548 21.9929 7.99349 22.4557 7.82474C22.9185 7.65587 23.4305 7.89458 23.5992 8.35724C27.2428 18.3529 24.4598 26.2106 22.4766 30.0048C22.3173 30.3096 22.0068 30.4839 21.6854 30.4839Z" fill="#8D58CD"/>
<path d="M16.3133 24.9448C17.4571 24.9448 18.3844 24.021 18.3844 22.8816C18.3844 21.7421 17.4571 20.8184 16.3133 20.8184C15.1695 20.8184 14.2422 21.7421 14.2422 22.8816C14.2422 24.021 15.1695 24.9448 16.3133 24.9448Z" fill="#FAA074"/>
<path d="M52.7981 44.4612C52.5089 44.3868 52.4224 44.2594 52.1925 43.868C51.9224 43.4082 51.5142 42.7134 50.4931 42.4507C49.4725 42.188 48.7793 42.5991 48.3204 42.8709C47.929 43.103 47.7914 43.1727 47.5015 43.0983C47.2121 43.0239 47.1256 42.8965 46.8958 42.5052C46.6258 42.0455 46.2177 41.3507 45.1966 41.0879C44.719 40.9649 44.2332 41.2525 44.1104 41.7294C43.9876 42.2065 44.2749 42.6928 44.752 42.8155C45.0413 42.8899 45.1278 43.0173 45.3576 43.4087C45.6276 43.8684 46.0358 44.5631 47.0568 44.8259C48.0777 45.0886 48.7711 44.6776 49.2299 44.4056C49.6211 44.1737 49.7587 44.1036 50.0485 44.1784C50.3379 44.2528 50.4243 44.3802 50.6543 44.7716C50.9244 45.2313 51.3326 45.926 52.3536 46.1887C52.4281 46.208 52.503 46.2171 52.5765 46.2171C52.9739 46.2171 53.3362 45.9497 53.4398 45.5471C53.5624 45.0702 53.2752 44.5839 52.7981 44.4612Z" fill="#FAA074"/>
<path d="M46.1629 29.2958C46.5952 29.0595 46.754 28.5175 46.5177 28.0852C46.2812 27.6529 45.7393 27.494 45.3072 27.7305C45.0448 27.8738 44.8942 27.8401 44.4575 27.7114C43.9456 27.5607 43.1723 27.3328 42.2479 27.8382C41.3227 28.344 41.0984 29.118 40.95 29.63C40.8239 30.0656 40.7716 30.2101 40.5099 30.3532C40.2475 30.4966 40.0969 30.4627 39.6603 30.334C39.1485 30.1832 38.3753 29.9553 37.4507 30.4607C37.0184 30.697 36.8596 31.239 37.0959 31.6713C37.3323 32.1036 37.8743 32.2624 38.3064 32.026C38.569 31.8827 38.7195 31.9166 39.156 32.0452C39.4308 32.1262 39.7809 32.2293 40.1894 32.2293C40.5416 32.2293 40.9376 32.1525 41.3657 31.9184C42.291 31.4125 42.5153 30.6386 42.6637 30.1265C42.7898 29.6911 42.8421 29.5465 43.1037 29.4035C43.3658 29.2602 43.5166 29.2939 43.9534 29.4226C44.4651 29.5733 45.2385 29.8012 46.1629 29.2958Z" fill="#FAA074"/>
<path d="M17.4458 13.1128C17.0537 12.8833 16.9262 12.7971 16.8519 12.5093C16.7777 12.2221 16.8474 12.0851 17.0792 11.6955C17.352 11.237 17.7643 10.544 17.5008 9.52346C17.2372 8.50335 16.5411 8.096 16.0804 7.82635C15.6883 7.5969 15.5607 7.51053 15.4864 7.22284C15.3631 6.746 14.8774 6.45901 14.3996 6.58229C13.9227 6.70557 13.6359 7.19213 13.7591 7.66909C14.0226 8.68921 14.7187 9.09655 15.1794 9.36608C15.5716 9.59553 15.6991 9.68178 15.7734 9.9696C15.8476 10.2568 15.7779 10.3938 15.5461 10.7833C15.2733 11.2419 14.861 11.9348 15.1245 12.9554C15.3881 13.9755 16.0842 14.3829 16.5449 14.6524C16.9371 14.8819 17.0646 14.9682 17.1389 15.2559C17.2428 15.6581 17.6049 15.9249 18.002 15.9249C18.0758 15.9249 18.1509 15.9157 18.2257 15.8964C18.7026 15.7731 18.9894 15.2865 18.8662 14.8096C18.6026 13.7897 17.9066 13.3823 17.4458 13.1128Z" fill="#FAA074"/>
<path d="M32.249 14.7022C32.4859 14.2703 32.3279 13.7281 31.8961 13.4911C31.4643 13.2539 30.9222 13.412 30.685 13.8439C30.1778 14.7681 30.4064 15.5411 30.5577 16.0526C30.6861 16.487 30.7201 16.6368 30.5772 16.8971C30.434 17.1581 30.2889 17.2104 29.8519 17.3366C29.339 17.4847 28.5641 17.7082 28.0572 18.6318C27.55 19.5561 27.7786 20.329 27.9299 20.8406C28.0583 21.275 28.0923 21.4247 27.9495 21.685C27.7124 22.1168 27.8702 22.6591 28.3022 22.8961C28.4384 22.9709 28.5854 23.0064 28.7305 23.0064C29.0456 23.0064 29.3509 22.8391 29.5132 22.5435C30.0206 21.6191 29.792 20.8462 29.6406 20.3347C29.5122 19.9002 29.4783 19.7505 29.6211 19.4902C29.7643 19.2292 29.9094 19.1768 30.3464 19.0506C30.8593 18.9026 31.6342 18.679 32.141 17.7555C32.6484 16.8311 32.4198 16.0581 32.2684 15.5466C32.14 15.1122 32.1061 14.9624 32.249 14.7022Z" fill="#FAA074"/>
<path d="M30.2198 4.43934L31.4133 6.61703L30.2926 8.83281L32.7364 8.37285L34.5016 10.1214L34.8185 7.65953L37.0303 6.52445L34.7821 5.46285L34.3839 3.0127L32.6776 4.81855L30.2198 4.43934Z" fill="#8D58CD"/>
<path d="M4.72852 14.5966L5.92195 16.7742L4.80117 18.99L7.24512 18.5302L9.01031 20.2787L9.32719 17.8167L11.5389 16.6816L9.29086 15.62L8.89266 13.1699L7.18629 14.9758L4.72852 14.5966Z" fill="#8D58CD"/>
<path d="M40.4301 12.1903C41.5779 12.1903 41.5798 10.4064 40.4301 10.4064C39.2822 10.4064 39.2803 12.1903 40.4301 12.1903Z" fill="#AE80EA"/>
<path d="M21.0883 5.02711C22.2361 5.02711 22.238 3.24316 21.0883 3.24316C19.9404 3.24316 19.9384 5.02711 21.0883 5.02711Z" fill="#AE80EA"/>
<path d="M15.2802 43.1793L15.8412 40.6068L18.2786 39.6105L16.0051 38.2821L15.8146 35.709L12.3557 39.1719L12.3454 39.1922L10.959 41.4308L13.5794 41.1693L15.2802 43.1793Z" fill="white"/>
<path d="M10.959 52.0166L13.5603 52.4246L14.3673 54.108L17.4355 51.0401L16.6358 50.2426L17.1102 47.6525L14.766 48.8513L12.4496 47.5998L12.8652 50.1999L10.959 52.0166Z" fill="white"/>
</g>
<defs>
<clipPath id="clip0_2_4764">
<rect width="60" height="60" fill="white"/>
</clipPath>
</defs>
</svg>
